<?xml version="1.0" encoding="UTF-8"?>
<svg width="143px" height="48px" viewBox="0 0 143 48" version="1.1" xmlns="http://www.w3.org/2000/svg" xmlns:xlink="http://www.w3.org/1999/xlink">
    <!-- Generator: Sketch 49.2 (51160) - http://www.bohemiancoding.com/sketch -->
    <title>Moneris Logo</title>
    <desc>Created with Sketch.</desc>
    <defs></defs>
    <g id="Nav" stroke="none" stroke-width="1" fill="none" fill-rule="evenodd">
        <g id="Navigation" transform="translate(-413.000000, -70.000000)" fill="#FFFFFF">
            <g id="Moneris-Logo" transform="translate(413.000000, 70.000000)">
                <path d="M128.709766,8.5658099 C127.812598,7.84188616 126.865096,7.16699213 125.767083,6.75195559 C124.601305,6.30897212 123.402625,5.94149441 122.165151,5.74831733 C120.88962,5.55244362 119.570385,5.50611054 118.247466,5.62917512 C116.871759,5.76081991 115.4769,6.07559068 114.105121,6.60241496 C113.005635,7.026522 111.943962,7.55212054 110.931394,8.17308188 C109.868492,8.8241965 108.864518,9.57949926 107.92831,10.4411965 C106.944469,11.3418724 106.044109,12.3592389 105.229684,13.4820194 C104.380394,14.6611841 103.641348,15.9582652 103.034887,17.3595344 C102.395035,18.8299356 101.922634,20.3665268 101.627506,21.9460191 C101.322312,23.5956239 101.216734,25.2766077 101.315928,26.9639653 C101.417823,28.7062362 101.741924,30.4387012 102.292157,32.1209107 C102.854913,33.8445503 103.651414,35.4978323 104.675522,37.0407975 C107.32406,41.0401513 110.902421,43.9505552 114.929121,45.6592408 C118.80924,47.3100713 122.882591,47.7464357 126.747241,47.0992435 C130.301541,46.509416 133.542052,45.0191578 136.253446,42.8238523 C138.688126,40.8506515 140.649424,38.3457233 142.036426,35.4414482 C142.120643,35.2632252 142.170976,35.059997 142.193565,34.8481886 C142.213699,34.6373608 142.20977,34.4140305 142.173432,34.1958483 C142.143231,33.9749694 142.083076,33.7594838 141.998859,33.5547847 C141.909732,33.3527823 141.801453,33.1632825 141.673532,33.0029553 C141.537753,32.8396863 141.394609,32.7190732 141.248764,32.6401354 C141.103164,32.5572752 140.952163,32.517316 140.812702,32.517316 C140.664401,32.5185417 140.525185,32.5587461 140.400701,32.642832 C140.275235,32.726918 140.162046,32.8509632 140.067762,33.0179094 C138.781182,35.3774644 137.029813,37.3570391 134.90622,38.8561227 C132.586939,40.4995987 129.865724,41.539519 126.934335,41.8555155 C123.796947,42.1943108 120.527953,41.6951883 117.421993,40.2811713 C114.224449,38.8262145 111.363773,36.477446 109.177324,33.3113522 C108.358234,32.1282652 107.704877,30.8613373 107.219955,29.5417026 C106.742398,28.2446215 106.43082,26.907336 106.282519,25.5538707 C106.143058,24.2366874 106.154352,22.914356 106.317876,21.6096753 C106.478453,20.3478956 106.778982,19.1108758 107.216026,17.9167571 C107.491266,17.1550805 107.815366,16.4274795 108.1898,15.7376315 C108.545328,15.0651889 108.948735,14.4265769 109.383324,13.8257177 C109.810547,13.2398126 110.270426,12.6916604 110.76296,12.1797902 C111.240517,11.6806677 111.745327,11.2166014 112.275673,10.7912687 C112.551895,10.5718607 112.82959,10.3647101 113.109986,10.1676107 C113.393819,9.97198213 113.681581,9.78640465 113.97057,9.60818164 C114.258332,9.43510675 114.552232,9.2708572 114.856199,9.11518786 C115.146661,8.96221515 115.450628,8.81782263 115.753367,8.68372636 C116.093918,8.53443088 116.433241,8.40401184 116.781158,8.28854686 C117.120481,8.17430763 117.462014,8.07771909 117.804038,7.99510402 C118.145817,7.91469529 118.484894,7.84703428 118.829373,7.79555308 C119.164523,7.74799425 119.505073,7.71024137 119.83924,7.68646196 C119.548041,7.78795347 119.260279,7.90219271 118.98504,8.02893452 C118.693595,8.15567633 118.414427,8.29590132 118.138205,8.45157066 C117.86051,8.60601427 117.58527,8.77639253 117.324026,8.96221515 C117.056398,9.14779262 116.792698,9.3485693 116.54373,9.56552579 C116.371613,9.71359553 116.202197,9.86803913 116.038919,10.0271406 C115.874168,10.1904095 115.7131,10.359562 115.558662,10.537785 C115.401768,10.7160081 115.251012,10.899134 115.105167,11.0923111 C114.956866,11.2879397 114.816177,11.4874906 114.680399,11.6968475 C113.593681,13.3665544 112.927802,15.2684171 112.69774,17.2805966 C112.449018,19.4182922 112.69774,21.6373771 113.429176,23.7736017 C114.184182,25.9914609 115.436878,28.0578182 117.120481,29.779987 C118.813905,31.5114714 120.885937,32.8333125 123.221423,33.5837123 C124.572332,34.018851 125.926678,34.2708637 127.249842,34.3537239 C128.538877,34.4353584 129.795257,34.3500467 130.991236,34.1117623 C132.159961,33.8823032 133.257728,33.5109031 134.29313,33.0103097 C135.278199,32.5236898 136.204094,31.9238113 137.037179,31.2153319 C137.838836,30.5338188 138.53737,29.7760646 139.133027,28.9584941 C139.70585,28.1718123 140.182179,27.3326688 140.570363,26.4493984 C140.935958,25.6026553 141.221019,24.7157077 141.413269,23.803755 C141.607975,22.9231813 141.717482,22.0149059 141.748664,21.0892248 C141.821586,18.8723463 141.516392,16.7397988 140.928592,14.7565469 C140.371729,12.8836117 139.555094,11.0947626 138.53737,9.45520893 C137.549847,7.86689131 136.348712,6.37810402 134.96662,5.05086963 C133.594841,3.72486099 132.015344,2.52559416 130.232547,1.51313055 C130.121812,1.44546954 129.997574,1.39913646 129.888313,1.37020893 C129.771195,1.34005565 129.665862,1.33123031 129.565195,1.34005565 C129.462317,1.34765526 129.380556,1.37143467 129.302723,1.41923864 C129.2298,1.46557173 129.170873,1.52832976 129.135516,1.60971909 C129.104088,1.69257931 129.094022,1.78279398 129.111945,1.88183401 C129.122994,1.97866769 129.159333,2.0801592 129.219733,2.18189586 C129.274978,2.2784844 129.353056,2.37875017 129.449795,2.4677391 C129.536222,2.56065041 129.649412,2.63958825 129.771195,2.71117163 C131.38212,3.60939601 132.810617,4.68584341 134.041952,5.8824136 C135.283109,7.08168043 136.361234,8.42656551 137.234586,9.86411675 C138.132736,11.3418724 138.837654,12.9475955 139.293604,14.6261278 C139.776072,16.3887461 139.992384,18.2717323 139.854151,20.2059545 C139.800134,20.9801337 139.680806,21.7327399 139.4861,22.4603408 C139.291395,23.2104955 139.022293,23.9317226 138.681742,24.6154419 C138.328915,25.321715 137.901692,25.9865579 137.395163,26.6035969 C136.868745,27.2409832 136.269651,27.8219853 135.57971,28.3336104 C134.871354,28.864357 134.106036,29.3061148 133.277861,29.6483422 C132.428571,30.0020916 131.524037,30.2504271 130.584392,30.3886909 C129.611846,30.5252386 128.609344,30.5465666 127.584009,30.4411527 C126.530929,30.3345131 125.468273,30.0947577 124.405126,29.723848 C123.981586,29.5755331 123.573514,29.4036839 123.175018,29.2119777 C122.774312,29.016104 122.383428,28.7976766 122.010467,28.5596374 C121.634805,28.3211078 121.271665,28.0627212 120.928905,27.7854582 C120.578287,27.5069694 120.248785,27.2145071 119.934752,26.8997364 C120.596948,27.2309321 121.271665,27.4971634 121.962834,27.6949983 C122.647618,27.8960202 123.34247,28.0337937 124.035848,28.1078285 C124.716704,28.1794119 125.400261,28.1882373 126.074979,28.1379818 C126.737174,28.0865006 127.392986,27.9774095 128.03112,27.8067861 C128.980832,27.5559991 129.865724,27.2098493 130.680885,26.7742203 C131.466337,26.3542808 132.180095,25.8585904 132.82584,25.2967098 C133.44384,24.7519897 133.994074,24.1437761 134.466475,23.4877585 C134.925126,22.8479207 135.3111,22.1629756 135.621205,21.4366004 C135.926645,20.7354755 136.152533,20.0152289 136.304762,19.2839507 C136.451834,18.5752262 136.525739,17.8562054 136.535806,17.1362041 C136.541207,16.4350792 136.4894,15.7288061 136.373756,15.0213073 C136.262039,14.3336656 136.084766,13.6438175 135.858633,12.9588724 C135.289493,11.281811 134.474332,9.74129732 133.476496,8.37018134 C132.501494,7.026522 131.329331,5.80837873 130.018935,4.75840738 C128.70461,3.70230732 127.221852,2.79010948 125.613872,2.07770772 C123.965381,1.34005565 122.1487,0.797051562 120.203608,0.511943769 C117.658193,0.142014569 115.088716,0.159665267 112.568346,0.547245164 C109.805636,0.972332793 107.061587,1.85315162 104.474678,3.18553413 C101.593869,4.67309568 98.8797745,6.7343049 96.6154922,9.35224653 C94.0639392,12.2915779 92.086191,15.918306 91.1126625,20.0941668 C91.0446506,20.3829518 91.0672394,20.6501638 91.1600499,20.8859967 C91.2582621,21.1230554 91.4242407,21.3299607 91.6540573,21.4942103 C91.8863291,21.6572341 92.1753185,21.7802987 92.5072758,21.8494306 C92.8414428,21.9158658 93.2168589,21.9332714 93.6254217,21.8881641 C94.0224445,21.841831 94.4143112,21.7415652 94.7774508,21.5983984 C95.1344522,21.4554768 95.4622354,21.2723508 95.7460687,21.0627488 C96.0276921,20.8533919 96.2675754,20.617559 96.4448485,20.3628496 C96.6231036,20.1157399 96.7387485,19.8482828 96.7814708,19.5788645 C97.3506105,16.1401654 98.7540629,13.096891 100.679022,10.5718607 C102.42278,8.28241815 104.577555,6.43816542 106.935876,5.0658237 C109.078129,3.82022379 111.397411,2.96318437 113.773409,2.50794347 C115.962068,2.08653307 118.220949,2.0024471 120.47762,2.27456202 C122.157294,2.48171257 123.734091,2.92445089 125.175109,3.54418649 C126.583718,4.14994862 127.885521,4.93417891 129.039023,5.85471181 C130.182213,6.7681354 131.202392,7.8355123 132.046772,9.01614783 C132.900972,10.2190919 133.590913,11.5627512 134.046863,13.0216304 C134.226837,13.5923363 134.351075,14.1605907 134.428908,14.730316 C134.509197,15.3073957 134.52933,15.8844755 134.503059,16.4576328 C134.474332,17.0386349 134.386186,17.617921 134.245497,18.1861754 C134.094741,18.7608037 133.889969,19.3290581 133.617185,19.878436 C133.338508,20.4430132 133.004095,20.9686117 132.609773,21.4542511 C132.210049,21.9521478 131.748943,22.4037115 131.237749,22.8040391 C130.707403,23.2168693 130.129424,23.5715993 129.4935,23.8652873 C128.845299,24.1638783 128.139399,24.3997112 127.395442,24.5575869 C126.804941,24.6818772 126.199217,24.7407129 125.588583,24.7333584 C124.968127,24.7284554 124.344971,24.6517239 123.726725,24.5112538 C123.100868,24.3683322 122.484095,24.1550529 121.889911,23.8790156 C121.286888,23.5980754 120.710137,23.2504547 120.15843,22.8390954 C119.615808,22.4265103 119.100439,21.9621989 118.643261,21.459154 C118.187311,20.9536577 117.78636,20.4091827 117.450965,19.8360253 C117.120481,19.2653195 116.858991,18.6693633 116.683437,18.0545306 C116.504936,17.4485234 116.468598,16.514017 116.488486,15.8933008 C116.49978,15.5368548 116.658147,14.7916031 116.761024,14.5106628 C116.866603,14.2333998 116.984703,13.9612849 117.113115,13.6989759 C117.238581,13.4393636 117.37436,13.1898023 117.50621,12.9576466 C118.077805,11.9591565 118.829373,11.1587464 119.694868,10.5554357 C120.527953,9.9759045 121.46146,9.57802837 122.433761,9.36107188 C123.377335,9.15416648 124.352337,9.10513676 125.333722,9.24683264 C126.233346,9.37504535 127.061275,9.65966284 127.832732,10.0673449 C127.963354,10.1362317 128.091275,10.192861 128.222388,10.2217885 C128.35031,10.2480194 128.473566,10.2531675 128.589211,10.2367426 C128.70461,10.2190919 128.811416,10.1803584 128.903245,10.1200519 C128.996055,10.0621968 129.068978,9.98325896 129.120539,9.88299319 C129.174801,9.78640465 129.202301,9.67731354 129.212122,9.56184856 C129.212122,9.44760932 129.1996,9.32969286 129.162034,9.21177639 C129.12545,9.09385993 129.068978,8.9786401 128.991144,8.86930384 C128.915767,8.75776123 128.818782,8.65602458 128.709766,8.5658099" id="Fill-1"></path>
                <path d="M17.3391432,45.689296 L16.1193477,37.5037851 C15.8635049,35.8755082 15.7115215,34.604658 15.5853188,33.4117651 L15.5325298,33.4117651 C15.3051685,34.505618 15.0242816,35.6972852 14.5896926,37.0710978 L11.8645496,45.689296 L8.58254332,45.689296 L5.96052307,37.7320184 C5.50113549,36.3346715 5.07022946,34.7816553 4.86545702,33.4117651 L4.81266796,33.4117651 C4.71273705,34.934628 4.53251766,36.2831903 4.33044605,37.7834996 L3.36158268,45.689296 L2.45530504e-05,45.689296 L2.64807104,28.529386 L6.52131474,28.529386 L9.39672247,37.3508124 C9.8050397,38.5714071 10.1121984,39.7405207 10.3371043,40.9611154 L10.3913665,40.9611154 C10.6449996,39.638784 10.926623,38.6728986 11.3582657,37.4020484 L14.31077,28.529386 L18.15455,28.529386 L20.8271496,45.689296 L17.3391432,45.689296" id="Fill-4"></path>
                <path d="M35.4048357,39.1296594 C35.4048357,34.7817043 33.0860457,32.8009038 29.5000727,32.8009038 C25.6562926,32.8009038 23.0291162,35.645853 23.0291162,39.5873518 C23.0291162,44.0872991 25.3459421,45.9425835 28.939281,45.9425835 C32.7322362,45.9425835 35.4048357,43.0976343 35.4048357,39.1296594 M32.042541,39.3078825 C32.042541,41.8767944 30.8205357,43.171424 29.2162394,43.171424 C27.3354757,43.171424 26.391902,41.848112 26.391902,39.2564013 C26.391902,36.6644454 27.8167155,35.5455873 29.2705016,35.5455873 C31.1768005,35.5455873 32.042541,36.8676735 32.042541,39.3078825" id="Fill-6"></path>
                <path d="M64.4575027,38.4195866 C64.4575027,35.2922262 62.8237427,32.7757761 59.1353835,32.7757761 C55.3384998,32.7757761 53.2026299,35.623422 53.2026299,39.4869635 C53.2026299,43.9354295 55.4428503,45.9427061 59.4607114,45.9427061 C61.0394726,45.9427061 62.6464697,45.6627464 63.997133,45.1270968 L63.6924297,42.6121175 C62.5949083,43.1212911 61.2489101,43.3997799 59.9971956,43.3997799 C57.6597452,43.3997799 56.4861094,42.2556715 56.5121356,39.893665 L64.3531522,39.893665 C64.4319675,39.3592411 64.4575027,38.8498223 64.4575027,38.4195866 M61.2192009,37.6819345 L56.5622238,37.6819345 C56.7417066,36.1566201 57.682334,35.1642587 59.0349615,35.1642587 C60.4089502,35.1642587 61.2717444,36.1051389 61.2192009,37.6819345" id="Fill-8"></path>
                <path d="M67.1262229,35.3147799 C66.9214504,35.0161889 66.801386,34.6523884 66.801386,34.2623571 C66.801386,33.8772287 66.9214504,33.5183311 67.1205757,33.2197402 C68.661034,33.047891 70.4789419,32.9814558 72.073908,33.028034 C72.073908,33.6901803 72.0000034,34.7065663 71.8440915,35.5969459 L71.8944252,35.5969459 C72.5050596,33.9949 73.7300113,32.5963273 75.9186702,32.7745504 L75.7642315,35.9783971 C73.4245714,35.4939835 72.2511811,37.0207688 72.2511811,40.5271289 L72.2511811,45.6892224 L69.0182809,45.6892224 L69.0182809,35.5454647 C68.4950554,35.4577015 67.7808072,35.3711641 67.1262229,35.3147799" id="Fill-10"></path>
                <path d="M83.8630552,29.4462907 C83.8630552,28.3512121 82.9459988,27.4882891 81.825152,27.4882891 C80.7320502,27.4882891 79.8162214,28.3776881 79.8162214,29.4462907 C79.8162214,30.5389179 80.7320502,31.4285621 81.825152,31.4285621 C82.9459988,31.4285621 83.8630552,30.5389179 83.8630552,29.4462907" id="Fill-12"></path>
                <path d="M89.8210002,45.9425835 C88.9039438,45.9425835 87.9890971,45.841092 87.1751635,45.7128793 L87.2527511,43.0461531 C88.0418862,43.2481555 89.006821,43.4273591 89.9742112,43.4273591 C91.2244526,43.4273591 92.0396138,42.9179404 92.0396138,42.0787968 C92.0396138,39.8393646 86.9185841,41.1156081 86.9185841,36.8176632 C86.9185841,34.604707 88.7254431,32.7756535 92.2934924,32.7756535 C93.0298384,32.7756535 93.8440175,32.8773902 94.6078629,33.004132 L94.5086686,35.5718182 C93.7961391,35.3673643 92.9544605,35.2420933 92.1653254,35.2420933 C90.8912677,35.2420933 90.2794056,35.7500412 90.2794056,36.5379487 C90.2794056,38.5964613 95.4736035,37.6820571 95.4736035,41.7740771 C95.4736035,44.2652769 93.2824892,45.9425835 89.8210002,45.9425835" id="Fill-14"></path>
                <path d="M42.1264543,33.0280095 C42.1264543,33.6389197 42.0751384,34.631036 41.9474625,35.2907308 L41.9747164,35.3159811 C42.7365976,33.8183685 44.2149367,32.7745258 46.2783751,32.7745258 C49.1304574,32.7745258 50.0426032,34.6048051 50.0426032,36.8177613 L50.0426032,45.6882173 L46.8084754,45.6882173 L46.8084754,37.6054237 C46.8084754,36.2830923 46.4529473,35.4942041 45.2581958,35.4942041 C43.6035658,35.4942041 42.305446,37.3757195 42.305446,39.5862242 L42.305446,45.6882173 L39.0723003,45.6882173 L39.0723003,35.5469111 C38.5488293,35.457677 37.8385095,35.3713847 37.178278,35.3147554 C36.9742422,35.0161644 36.8551599,34.6511382 36.8551599,34.2623326 C36.8551599,33.8772041 36.9742422,33.5183066 37.1716487,33.2197157 C38.7135803,33.0466408 40.5314881,32.982657 42.1264543,33.0280095" id="Fill-16"></path>
                <path d="M83.4571196,33.0280095 C81.8037172,32.982657 79.9217259,33.0466408 78.320867,33.2197157 C78.1234605,33.5183066 78.0105164,33.8772041 78.0105164,34.2623326 C78.0105164,34.6511382 78.1234605,35.0161644 78.3272508,35.3147554 C78.9855181,35.3713847 79.6978021,35.457677 80.2193089,35.5469111 L80.2193089,45.6882173 L83.4571196,45.6882173 L83.4571196,33.0280095" id="Fill-18"></path>
                <path d="M140.99518,2.08793041 C140.916119,2.04380367 140.789425,2.0217403 140.615099,2.0217403 L140.346979,2.0217403 L140.346979,2.6657456 L140.630813,2.6657456 C140.763645,2.6657456 140.86333,2.65250758 140.929623,2.62603153 C141.052143,2.57749212 141.113526,2.48482596 141.113526,2.3482782 C141.113526,2.21883975 141.073995,2.13205716 140.99518,2.08793041 Z M140.656348,1.80772559 C140.877325,1.80772559 141.039375,1.82905352 141.142498,1.87195452 C141.326401,1.94844087 141.418474,2.0984718 141.418474,2.32229245 C141.418474,2.48114873 141.360529,2.59832975 141.244884,2.67334521 C141.183256,2.71305928 141.097321,2.74174166 140.987568,2.75939236 C141.126539,2.78145573 141.228434,2.83931079 141.293008,2.93344785 C141.357583,3.02733975 141.389502,3.11927047 141.389502,3.2087497 L141.389502,3.33867844 C141.389502,3.3798634 141.390975,3.42399015 141.394167,3.47081352 C141.397113,3.51788205 141.402269,3.54877077 141.40939,3.56347968 L141.420439,3.58529791 L141.126784,3.58529791 L141.12261,3.56789236 C141.121137,3.56200879 141.119418,3.55538978 141.117945,3.54803532 L141.111561,3.49091571 L141.111561,3.35020042 C141.111561,3.14501107 141.055335,3.00944391 140.943618,2.94349894 C140.877325,2.90525576 140.760944,2.88637932 140.594474,2.88637932 L140.346979,2.88637932 L140.346979,3.58529791 L140.033437,3.58529791 L140.033437,1.80772559 L140.656348,1.80772559 Z M139.701971,1.71751092 C139.431151,1.98938069 139.295618,2.31787978 139.295618,2.70325334 C139.295618,3.09132353 139.430414,3.42227411 139.700006,3.69585992 C139.970827,3.96920058 140.300083,4.10599348 140.687285,4.10599348 C141.074486,4.10599348 141.403743,3.96920058 141.674808,3.69585992 C141.945628,3.42227411 142.081161,3.09132353 142.081161,2.70325334 C142.081161,2.31787978 141.945628,1.98938069 141.674808,1.71751092 C141.402269,1.44392511 141.073013,1.3071322 140.687285,1.3071322 C140.303029,1.3071322 139.97451,1.44392511 139.701971,1.71751092 Z M141.835876,3.85005837 C141.519387,4.16752577 141.13636,4.32638205 140.687285,4.32638205 C140.238209,4.32638205 139.855918,4.16752577 139.540903,3.85005837 C139.22736,3.53381671 139.070221,3.15089463 139.070221,2.701047 C139.070221,2.25561204 139.228833,1.87465115 139.545322,1.55865464 C139.860338,1.24412902 140.241156,1.08674363 140.687285,1.08674363 C141.13636,1.08674363 141.519387,1.24412902 141.835876,1.55865464 C142.152611,1.87342541 142.310732,2.25414115 142.310732,2.701047 C142.310732,3.14966889 142.152611,3.53259096 141.835876,3.85005837 Z" id="Fill-20"></path>
            </g>
        </g>
    </g>
</svg>